<svg xmlns="http://www.w3.org/2000/svg" width="115" height="97" viewBox="0 0 115 97">
  <g id="Group_482" data-name="Group 482" transform="translate(-27.261 -375)">
    <g id="_006-speech" data-name="006-speech" transform="translate(27.261 375)">
      <path id="Path_2402" data-name="Path 2402" d="M318.251,119.489A16.269,16.269,0,0,0,334.5,103.238v-26a16.251,16.251,0,1,0-32.5,0v26A16.269,16.269,0,0,0,318.251,119.489Z" transform="translate(-232.502 -54.492)" fill="#2d4196"/>
      <path id="Path_2403" data-name="Path 2403" d="M297.253,180.986a3.25,3.25,0,0,0-3.25,3.25v13a22.751,22.751,0,0,1-45.5,0v-13a3.25,3.25,0,1,0-6.5,0v13a29.292,29.292,0,0,0,26,29.07v13.182h-9.75a3.25,3.25,0,1,0,0,6.5h26a3.25,3.25,0,1,0,0-6.5H274.5V226.307a29.292,29.292,0,0,0,26-29.07v-13A3.25,3.25,0,0,0,297.253,180.986Z" transform="translate(-185.503 -148.99)" fill="#2d4196"/>
      <path id="Path_2404" data-name="Path 2404" d="M58.936,53.759a3.25,3.25,0,0,0-3.25-3.25H50.978l-5.6-11.2a3.253,3.253,0,0,0-5.925.246L29.746,63.815,19.551,33.23a3.253,3.253,0,0,0-6.167,0L7.624,50.509H3.25a3.25,3.25,0,0,0,0,6.5H9.967a3.25,3.25,0,0,0,3.083-2.222l3.417-10.251,9.917,29.752a3.25,3.25,0,0,0,6.1.179L42.8,48.685l3.264,6.527a3.25,3.25,0,0,0,2.907,1.8h6.717a3.25,3.25,0,0,0,3.25-3.25Z" transform="translate(0 -31.014)" fill="#fd0e31"/>
    </g>
  </g>
</svg>
