<svg id="_009-map" data-name="009-map" xmlns="http://www.w3.org/2000/svg" width="114.988" height="114.988" viewBox="0 0 114.988 114.988">
  <path id="Path_2393" data-name="Path 2393" d="M221.106,75a10.106,10.106,0,1,0,10.106,10.106A10.118,10.118,0,0,0,221.106,75Zm0,0" transform="translate(-163.612 -58.156)" fill="#2d4196"/>
  <path id="Path_2394" data-name="Path 2394" d="M162.95,0a26.955,26.955,0,0,0-22.811,41.307l22.811,36.4,22.811-36.4A26.954,26.954,0,0,0,162.95,0Zm0,43.794A16.844,16.844,0,1,1,179.794,26.95,16.864,16.864,0,0,1,162.95,43.794Zm0,0" transform="translate(-105.456)" fill="#2d4196"/>
  <path id="Path_2395" data-name="Path 2395" d="M183,441.437h32.78L213.185,421H185.522Zm0,0" transform="translate(-141.898 -326.449)" fill="#fd0e31"/>
  <path id="Path_2396" data-name="Path 2396" d="M197.992,338.747h11.435l-9.542-15.134Zm0,0" transform="translate(-153.526 -250.934)" fill="#2d4196"/>
  <path id="Path_2397" data-name="Path 2397" d="M334.877,321.213h26.541L353,301H332.285Zm0,0" transform="translate(-257.658 -233.4)" fill="#2d4196"/>
  <path id="Path_2398" data-name="Path 2398" d="M50,321.213H76.445L78.971,301H58.418Zm0,0" transform="translate(-38.768 -233.4)" fill="#2d4196"/>
  <path id="Path_2399" data-name="Path 2399" d="M263.094,339.417H274.43l-1.915-14.94Zm0,0" transform="translate(-204.006 -251.603)" fill="#2d4196"/>
  <path id="Path_2400" data-name="Path 2400" d="M36.835,421H8.421L0,441.437H34.309Zm0,0" transform="translate(0 -326.449)" fill="#2d4196"/>
  <path id="Path_2401" data-name="Path 2401" d="M376.157,421H347.672l2.592,20.437h34.314Zm0,0" transform="translate(-269.589 -326.449)" fill="#2d4196"/>
</svg>
