<svg id="_009-map" data-name="009-map" xmlns="http://www.w3.org/2000/svg" width="25.992" height="25.992" viewBox="0 0 25.992 25.992">
  <path id="Path_2393" data-name="Path 2393" d="M213.284,75a2.284,2.284,0,1,0,2.284,2.284A2.287,2.287,0,0,0,213.284,75Zm0,0" transform="translate(-200.288 -71.193)" fill="#2d4196"/>
  <path id="Path_2394" data-name="Path 2394" d="M142.092,0a6.093,6.093,0,0,0-5.156,9.337l5.156,8.228,5.156-8.228A6.093,6.093,0,0,0,142.092,0Zm0,9.9A3.807,3.807,0,1,1,145.9,6.092,3.812,3.812,0,0,1,142.092,9.9Zm0,0" transform="translate(-129.096)" fill="#2d4196"/>
  <path id="Path_2395" data-name="Path 2395" d="M183,425.62h7.41L189.82,421h-6.253Zm0,0" transform="translate(-173.706 -399.628)" fill="#fd0e31"/>
  <path id="Path_2396" data-name="Path 2396" d="M197.992,327.034h2.585l-2.157-3.421Zm0,0" transform="translate(-187.941 -307.185)" fill="#2d4196"/>
  <path id="Path_2397" data-name="Path 2397" d="M332.871,305.569h6l-1.9-4.569h-4.682Zm0,0" transform="translate(-315.416 -285.719)" fill="#2d4196"/>
  <path id="Path_2398" data-name="Path 2398" d="M50,305.569h5.978L56.546,301H51.9Zm0,0" transform="translate(-47.458 -285.719)" fill="#2d4196"/>
  <path id="Path_2399" data-name="Path 2399" d="M263.094,327.854h2.562l-.433-3.377Zm0,0" transform="translate(-249.738 -308.004)" fill="#2d4196"/>
  <path id="Path_2400" data-name="Path 2400" d="M8.326,421H1.9L0,425.62H7.755Zm0,0" transform="translate(0 -399.628)" fill="#2d4196"/>
  <path id="Path_2401" data-name="Path 2401" d="M354.111,421h-6.439l.586,4.62h7.756Zm0,0" transform="translate(-330.022 -399.628)" fill="#2d4196"/>
</svg>
