<svg xmlns="http://www.w3.org/2000/svg" width="26" height="25.537" viewBox="0 0 26 25.537">
  <g id="_005-tithe" data-name="005-tithe" transform="translate(-3 -3.216)">
    <path id="Path_2296" data-name="Path 2296" d="M16.911,32.579l-.632-.632A13.956,13.956,0,0,1,11.2,34a10.145,10.145,0,0,0,2.135,1.909,24.615,24.615,0,0,0,3.579-3.329Z" transform="translate(-4.522 -15.852)" fill="#2d4196"/>
    <path id="Path_2297" data-name="Path 2297" d="M15.7,45.69h1.639l2.122-4.668.816.371-2.113,4.648,1.076,1.076,3.248-8.932L20.8,36.5Z" transform="translate(-7.007 -18.364)" fill="#2d4196"/>
    <path id="Path_2298" data-name="Path 2298" d="M46.439,5.127A10.137,10.137,0,0,0,44.3,3.217a25.569,25.569,0,0,0-3.036,2.726,4.321,4.321,0,0,1,1.275.545,13.517,13.517,0,0,1,3.9-1.361Z" transform="translate(-21.113 -0.001)" fill="#2d4196"/>
    <path id="Path_2299" data-name="Path 2299" d="M9.864,17.4a5.107,5.107,0,0,1-.473-.554L7.235,17.92l-.4-.8,2.082-1.041a4.991,4.991,0,0,1-.322-.8H5.69v-.9H8.413a5.217,5.217,0,0,1-.034-.569c0-.163.009-.325.025-.486L6.834,12.54l.4-.8,1.346.673a5.071,5.071,0,0,1,.973-1.844c.08-.1.167-.185.254-.273A12.308,12.308,0,0,0,4.55,9C4.177,9.481,3,11.271,3,14.829s1.175,5.346,1.55,5.826a12.669,12.669,0,0,0,6.556-2.016Z" transform="translate(0 -3.193)" fill="#2d4196"/>
    <path id="Path_2300" data-name="Path 2300" d="M16.368,5.942a25.611,25.611,0,0,0-3.036-2.726A10.206,10.206,0,0,0,11.2,5.126a13.548,13.548,0,0,1,3.9,1.36,4.343,4.343,0,0,1,1.275-.544Z" transform="translate(-4.522)" fill="#2d4196"/>
    <path id="Path_2301" data-name="Path 2301" d="M40.057,32.579a24.608,24.608,0,0,0,3.579,3.329A10.21,10.21,0,0,0,45.771,34a13.944,13.944,0,0,1-5.082-2.052Z" transform="translate(-20.445 -15.852)" fill="#2d4196"/>
    <path id="Path_2302" data-name="Path 2302" d="M49.471,9A12.318,12.318,0,0,0,44.214,10.3c.087.088.174.177.254.273a5.064,5.064,0,0,1,.973,1.844l1.346-.673.4.8-1.571.785c.016.161.025.324.025.486a5.208,5.208,0,0,1-.034.569h2.724v.9h-2.9a4.991,4.991,0,0,1-.322.8l2.082,1.041-.4.8L44.63,16.842a5.108,5.108,0,0,1-.473.554l-1.243,1.243a12.674,12.674,0,0,0,6.556,2.016c.374-.477,1.551-2.267,1.551-5.826S49.846,9.484,49.471,9Z" transform="translate(-22.022 -3.193)" fill="#2d4196"/>
    <path id="Path_2303" data-name="Path 2303" d="M30.448,14.914a4.179,4.179,0,0,0-.967-2.671A3.448,3.448,0,0,0,26.827,11a3.77,3.77,0,0,0-2.683,1.111l-.419.419-.419-.419A3.77,3.77,0,0,0,20.622,11a3.447,3.447,0,0,0-2.655,1.244,4.171,4.171,0,0,0,.255,5.62l5.5,5.5,5.5-5.5A4.145,4.145,0,0,0,30.448,14.914Z" transform="translate(-7.724 -4.295)" fill="#fd0e31"/>
    <path id="Path_2304" data-name="Path 2304" d="M33.158,38.185l3.248,8.932,1.076-1.076-2.113-4.648.816-.371,2.122,4.668h1.639l-5.1-9.189Z" transform="translate(-16.639 -18.364)" fill="#2d4196"/>
  </g>
</svg>
