<svg xmlns="http://www.w3.org/2000/svg" width="14" height="14" viewBox="0 0 14 14">
  <path id="Icon_awesome-headset" data-name="Icon awesome-headset" d="M5.25,5.688a.875.875,0,0,0-.875-.875H3.938a1.75,1.75,0,0,0-1.75,1.75V7.875a1.75,1.75,0,0,0,1.75,1.75h.438A.875.875,0,0,0,5.25,8.75Zm4.813,3.938a1.75,1.75,0,0,0,1.75-1.75V6.563a1.75,1.75,0,0,0-1.75-1.75H9.625a.875.875,0,0,0-.875.875V8.75a.875.875,0,0,0,.875.875ZM7,0A7.133,7.133,0,0,0,0,7v.438a.437.437,0,0,0,.438.438H.875a.437.437,0,0,0,.438-.437V7A5.688,5.688,0,0,1,12.688,7h0c0,.066,0,4.531,0,4.531a1.156,1.156,0,0,1-1.156,1.156H8.75a1.312,1.312,0,0,0-1.312-1.312H6.563a1.313,1.313,0,0,0,0,2.625h4.969A2.469,2.469,0,0,0,14,11.531V7A7.133,7.133,0,0,0,7,0Z"/>
</svg>
