<svg xmlns="http://www.w3.org/2000/svg" width="19.694" height="26.258" viewBox="0 0 19.694 26.258"><g transform="translate(4417 1111.258)"><g transform="translate(-4497 -1275)"><path d="M0,0H10V16H0Z" transform="translate(85 167)" fill="#fac82e"/><path d="M83.611,22.7a.513.513,0,0,0,.039-.062.54.54,0,0,0,.03-.145c0-.016.009-.03.009-.046s0-.01,0-.015V.547A.547.547,0,0,0,83.145,0H66.186A2.191,2.191,0,0,0,64,2.188V24.07a2.191,2.191,0,0,0,2.188,2.188H83.145a.547.547,0,0,0,.455-.85,2.4,2.4,0,0,1,0-2.675C83.607,22.722,83.605,22.708,83.611,22.7ZM70.016,8.206a.547.547,0,0,1,.547-.547H72.2V6.018a.547.547,0,0,1,.547-.547h2.188a.547.547,0,0,1,.547.547V7.659h1.641a.547.547,0,0,1,.547.547v2.188a.547.547,0,0,1-.547.547H75.486v6.018a.547.547,0,0,1-.547.547H72.751a.547.547,0,0,1-.547-.547V10.941H70.563a.547.547,0,0,1-.547-.547ZM82.275,25.164H66.186a1.094,1.094,0,1,1,0-2.188H82.275A3.483,3.483,0,0,0,82.275,25.164Z" transform="translate(16.002 163.742)" fill="#0f2575"/></g></g></svg>