<svg id="_001-credit-card" data-name="001-credit-card" xmlns="http://www.w3.org/2000/svg" width="24.016" height="16" viewBox="0 0 24.016 16">
  <path id="Path_2340" data-name="Path 2340" d="M0,213.231v6.215a3.241,3.241,0,0,0,3.241,3.241H20.775a3.241,3.241,0,0,0,3.241-3.241v-6.215a.564.564,0,0,0-.564-.564H.564A.564.564,0,0,0,0,213.231Zm6,3.945h-1.5a.986.986,0,0,1,0-1.973H6a.986.986,0,0,1,0,1.973Z" transform="translate(0 -206.687)" fill="#fd0e31"/>
  <path id="Path_2341" data-name="Path 2341" d="M24.016,88.778v-.2a3.241,3.241,0,0,0-3.241-3.241H3.241A3.241,3.241,0,0,0,0,88.575v.2a.564.564,0,0,0,.564.564H23.452A.564.564,0,0,0,24.016,88.778Z" transform="translate(0 -85.334)" fill="#fd0e31"/>
</svg>
