<svg xmlns="http://www.w3.org/2000/svg" width="26.368" height="29.297" viewBox="0 0 26.368 29.297"><g transform="translate(-21.333)"><g transform="translate(21.333)"><g transform="translate(0)"><path d="M44.771,2.93H43.306V0h-2.93V2.93H28.657V0h-2.93V2.93H24.263a2.916,2.916,0,0,0-2.915,2.93l-.015,20.508a2.929,2.929,0,0,0,2.93,2.93H44.771a2.929,2.929,0,0,0,2.93-2.93V5.859A2.929,2.929,0,0,0,44.771,2.93Zm0,23.438H24.263V10.254H44.771Z" transform="translate(-21.333)" fill="#0f2575"/><rect width="4" height="2" transform="translate(4.364 13.182)" fill="#2d4196"/><rect width="4" height="3" transform="translate(4.364 16.182)" fill="#2d4196"/><rect width="4" height="2" transform="translate(4.364 21.182)" fill="#2d4196"/><rect width="4" height="2" transform="translate(11.364 13.182)" fill="#2d4196"/><rect width="4" height="3" transform="translate(11.364 16.182)" fill="#2d4196"/><rect width="4" height="2" transform="translate(11.364 21.182)" fill="#2d4196"/><rect width="3" height="2" transform="translate(18.364 13.182)" fill="#2d4196"/><rect width="3" height="3" transform="translate(18.364 16.182)" fill="#2d4196"/><rect width="3" height="2" transform="translate(18.364 21.182)" fill="#fac82e"/></g></g></g></svg>