<svg id="metrize_question" data-name="metrize question" xmlns="http://www.w3.org/2000/svg" width="23.327" height="23.327" viewBox="0 0 23.327 23.327">
  <path id="Path_2418" data-name="Path 2418" d="M11.664,0A11.664,11.664,0,1,0,23.327,11.664,11.663,11.663,0,0,0,11.664,0Zm0,21.5A9.841,9.841,0,1,1,21.5,11.664,9.841,9.841,0,0,1,11.664,21.5Z" fill="#2d4196"/>
  <rect id="Rectangle_576" data-name="Rectangle 576" width="1" height="1" transform="translate(11 16)" fill="#2d4196"/>
  <path id="Path_2419" data-name="Path 2419" d="M182.458,129.009a3.281,3.281,0,0,0-1.128-.73,4.4,4.4,0,0,0-1.653-.279,3.864,3.864,0,0,0-1.494.279,3.463,3.463,0,0,0-1.17.78,3.1,3.1,0,0,0-.752,1.129,3.365,3.365,0,0,0-.261,1.457h1.488a2.58,2.58,0,0,1,.589-1.755,1.93,1.93,0,0,1,1.6-.675,1.992,1.992,0,0,1,1.466.5,1.87,1.87,0,0,1,.473,1.358,1.83,1.83,0,0,1-.443,1.207,11.616,11.616,0,0,1-.95,1.022,9.419,9.419,0,0,0-.909,1.032,1.925,1.925,0,0,0-.4,1.253v1.163h1.458v-.626a2.1,2.1,0,0,1,.2-.98,3.021,3.021,0,0,1,.54-.77,8.4,8.4,0,0,1,.7-.676,7.828,7.828,0,0,0,.708-.691,3.242,3.242,0,0,0,.544-.819,2.417,2.417,0,0,0,.22-1.07,3.181,3.181,0,0,0-.2-1.1A2.834,2.834,0,0,0,182.458,129.009Z" transform="translate(-167.981 -122.168)" fill="#2d4196"/>
</svg>
