<svg xmlns="http://www.w3.org/2000/svg" width="28.04" height="25.904" viewBox="0 0 28.04 25.904"><g transform="translate(4270 1111.225)"><g transform="translate(-4270 -1111.225)"><path d="M215.839,206.158a8.357,8.357,0,0,0-4.986-7.479c-.093,6.163-5.5,11.16-12.173,11.246a9.2,9.2,0,0,0,8.1,4.606,9.6,9.6,0,0,0,4.612-1.164L215.8,214.5l-1.22-4.076A7.866,7.866,0,0,0,215.839,206.158Zm0,0" transform="translate(-187.799 -188.628)" fill="#fac82e"/><path d="M10.706,19.782A11.368,11.368,0,0,1,5.265,18.41L.039,19.746l1.446-4.828A9.31,9.31,0,0,1,0,9.891C0,4.437,4.8,0,10.706,0S21.413,4.437,21.413,9.891,16.61,19.782,10.706,19.782ZM14.822,8.657a.916.916,0,1,0,.988.913A.954.954,0,0,0,14.822,8.657Zm-3.953,0a.916.916,0,1,0,.989.913A.954.954,0,0,0,10.869,8.657Zm-3.952,0a.916.916,0,1,0,0,1.826.916.916,0,1,0,0-1.826Z" transform="translate(0 0)" fill="#2d4196"/></g></g></svg>