<svg xmlns="http://www.w3.org/2000/svg" width="81.838" height="116.129" viewBox="0 0 81.838 116.129">
  <g id="Group_291" data-name="Group 291" transform="translate(-120.782 -203)">
    <path id="Subtraction_1" data-name="Subtraction 1" d="M10,100H0V41.714H10Zm0-76.571H0V0H10Z" transform="translate(153.782 219.129)" fill="#fd0e31"/>
    <text id="Exalt_Church" data-name="Exalt Church" transform="translate(120.782 254.129)" fill="#101424" font-size="7" font-family="Lato-Bold, Lato" font-weight="700" letter-spacing="0.2em"><tspan x="0" y="0">EXALT CHURCH</tspan></text>
    <path id="dove" d="M24.932,10.222a1.516,1.516,0,0,1-.583-.327,1.42,1.42,0,0,1-.07-.13c-.179-.354-.6-1.184-1.445-1.184a1.485,1.485,0,0,0-.415.062,2.644,2.644,0,0,0-1.456,1.145c-.161.222-.287.4-.43.425a.67.67,0,0,1-.125.013c-.136,0-.213-.052-.227-.154A9.013,9.013,0,0,1,20.152,8.7a7.076,7.076,0,0,0-.233-2.534,8.691,8.691,0,0,0-2.284-2.981c-.2-.2-.4-.382-.561-.553-.063-.078-.129-.149-.193-.218a2.232,2.232,0,0,1-.244-.294A6.841,6.841,0,0,1,16.007.756L15.96.6a.707.707,0,0,0-.083-.19C15.787.2,15.68,0,15.516,0a.22.22,0,0,0-.078.015c-.282.107-.344.691-.4,1.207a2.932,2.932,0,0,1-.106.638.968.968,0,0,1-.28.352.933.933,0,0,0-.326.468.614.614,0,0,0,.061.488.575.575,0,0,1,.073.378.676.676,0,0,1-.2.375.676.676,0,0,0-.213.425.649.649,0,0,0,.2.481.591.591,0,0,1,.181.382c0,.132-.08.2-.179.282a.544.544,0,0,0-.239.572.674.674,0,0,0,.3.428c.121.1.2.16.19.269a1.219,1.219,0,0,1-.057.266.811.811,0,0,0,.052.757,3.744,3.744,0,0,0,.548.507,11.144,11.144,0,0,0-2.8-.888,20.936,20.936,0,0,1-4.4-1.331,3.571,3.571,0,0,0-.705-.25.069.069,0,0,0-.071.044c-.018.051.026.1.131.186l.284.235c.38.315.679.563.806.688q-.093-.033-.266-.108a.1.1,0,0,0-.137.023.126.126,0,0,0-.019.073,12.388,12.388,0,0,0,2.3,3.58c.964,1.15,2.816,3.079,4.39,3.079a1.835,1.835,0,0,0,.276-.021,18.757,18.757,0,0,1-4.916,3.19C7.484,17.8,6.384,18.322,6.307,18.728a.274.274,0,0,0,.095.256.449.449,0,0,0,.315.152.645.645,0,0,0,.213-.048.662.662,0,0,1,.221-.049.536.536,0,0,1,.286.1,1.764,1.764,0,0,0,.972.334A2.564,2.564,0,0,0,9.847,18.9a.494.494,0,0,1,.3-.1,1.07,1.07,0,0,1,.179.02,1.243,1.243,0,0,0,.213.023h0a.844.844,0,0,0,.522-.2,8.4,8.4,0,0,1,4.352-1.424,10.709,10.709,0,0,0,5.746-2.051,5.673,5.673,0,0,0,2.3-3.226c.024-.08.046-.155.069-.225.226-.7.359-.865.524-.922.11-.038.382-.148.622-.245.169-.068.315-.127.355-.141.06-.02.067-.057.066-.077S25.084,10.257,24.932,10.222Z" transform="translate(177.532 203)" fill="#fd0e31"/>
  </g>
</svg>
