<svg xmlns="http://www.w3.org/2000/svg" width="25.992" height="25.992" viewBox="0 0 25.992 25.992"><path d="M213.284,75a2.284,2.284,0,1,0,2.284,2.284A2.287,2.287,0,0,0,213.284,75Zm0,0" transform="translate(-200.288 -71.193)" fill="#fac82e"/><path d="M142.092,0a6.093,6.093,0,0,0-5.156,9.337l5.156,8.228,5.156-8.228A6.093,6.093,0,0,0,142.092,0Zm0,9.9A3.807,3.807,0,1,1,145.9,6.092,3.812,3.812,0,0,1,142.092,9.9Zm0,0" transform="translate(-129.096)" fill="#0f2575"/><path d="M183,425.62h7.41L189.82,421h-6.253Zm0,0" transform="translate(-173.706 -399.628)" fill="#fac82e"/><path d="M197.992,327.034h2.585l-2.157-3.421Zm0,0" transform="translate(-187.941 -307.185)" fill="#0f2575"/><path d="M332.871,305.569h6l-1.9-4.569h-4.682Zm0,0" transform="translate(-315.416 -285.719)" fill="#0f2575"/><path d="M50,305.569h5.978L56.546,301H51.9Zm0,0" transform="translate(-47.458 -285.719)" fill="#0f2575"/><path d="M263.094,327.854h2.562l-.433-3.377Zm0,0" transform="translate(-249.738 -308.004)" fill="#0f2575"/><path d="M8.326,421H1.9L0,425.62H7.755Zm0,0" transform="translate(0 -399.628)" fill="#0f2575"/><path d="M354.111,421h-6.439l.586,4.62h7.756Zm0,0" transform="translate(-330.022 -399.628)" fill="#0f2575"/></svg>