<svg id="_002-museum" data-name="002-museum" xmlns="http://www.w3.org/2000/svg" width="18.181" height="18.181" viewBox="0 0 18.181 18.181">
  <path id="Path_2342" data-name="Path 2342" d="M396.426,268.344h2.13v5.1h-2.13Zm0,0" transform="translate(-382.349 -258.815)"/>
  <path id="Path_2343" data-name="Path 2343" d="M282.809,268.344h2.131v5.1h-2.131Zm0,0" transform="translate(-272.766 -258.815)"/>
  <path id="Path_2344" data-name="Path 2344" d="M169.191,268.344h2.131v5.1h-2.131Zm0,0" transform="translate(-163.183 -258.815)"/>
  <path id="Path_2345" data-name="Path 2345" d="M55.578,268.344h2.13v5.1h-2.13Zm0,0" transform="translate(-53.605 -258.815)"/>
  <path id="Path_2346" data-name="Path 2346" d="M51.233,208.876v-.533H35.578v.533a.533.533,0,0,0,.533.533H50.7A.533.533,0,0,0,51.233,208.876Zm0,0" transform="translate(-34.315 -200.945)"/>
  <path id="Path_2347" data-name="Path 2347" d="M17.663,442H.548a.533.533,0,0,0-.533.533v1.42a.533.533,0,0,0,.533.533H17.663a.533.533,0,0,0,.533-.533v-1.42A.533.533,0,0,0,17.663,442Zm0,0" transform="translate(-0.015 -426.305)"/>
  <path id="Path_2348" data-name="Path 2348" d="M.534,6.333H17.65a.533.533,0,0,0,.279-.986L9.371.079a.533.533,0,0,0-.558,0L.255,5.347a.533.533,0,0,0,.279.986Zm8.2-3.2h.724a.533.533,0,1,1,0,1.065H8.73a.533.533,0,1,1,0-1.065Zm0,0" transform="translate(-0.001)"/>
</svg>
