<svg xmlns="http://www.w3.org/2000/svg" width="26.003" height="31.958" viewBox="0 0 26.003 31.958"><g transform="translate(-255.863 -163.335)"><path d="M256.981,1115.674l3.167-4.506,5.365,3.568-3.366,4.526Z" transform="translate(-0.33 -924.687)" fill="#fac82e"/><path d="M265.514,1115.674l-3.167-4.506-5.365,3.568,3.366,4.526Z" transform="translate(15.884 -924.687)" fill="#fac82e"/><g transform="translate(255.863 163.335)"><g transform="translate(0)"><g transform="translate(0)"><path d="M73.585,27.359,70.38,22.8l-.495-.816L68.507,13.5c-.084-.516-.193-1.034-.325-1.54,0-.012-.007-.024-.011-.036L64.781,1.546a2.24,2.24,0,0,0-4.084-.4,2.241,2.241,0,0,0-4.084.4l-3.39,10.382c0,.012-.007.024-.011.036-.132.506-.241,1.024-.325,1.54l-1.378,8.477-.495.816-3.2,4.562a.624.624,0,0,0,.165.878L53.4,31.853a.624.624,0,0,0,.85-.151l3.342-4.58h0l2.263-3.1a.624.624,0,0,0,.115-.29l.729-5.792.731,5.792a.624.624,0,0,0,.115.29l2.263,3.1h0l3.342,4.58a.624.624,0,0,0,.85.151l5.423-3.616a.624.624,0,0,0,.165-.878ZM53.591,30.482,49.2,27.553l2.5-3.563,4.492,2.927Zm6.471-17.491L58.748,23.419,56.93,25.907l-4.546-2.963.255-.42a.623.623,0,0,0,.082-.224l1.4-8.6c.077-.471.176-.945.3-1.407L57.8,1.933a.994.994,0,0,1,1.927.457l-.868,5.738c0,.015,0,.03-.005.045l-.164,2.091a2.56,2.56,0,0,0-2.483,2.243L55.784,15.9v0l-.062.5a.624.624,0,0,0,1.239.154l.485-3.9a1.3,1.3,0,0,1,.5-.872l.007-.005a1.3,1.3,0,0,1,.96-.261h0a1.337,1.337,0,0,1,.187.037l.02.005A1.321,1.321,0,0,1,60.061,12.991Zm.634-1.833a2.581,2.581,0,0,0-.776-.611L60.1,8.293l.6-3.974.6,3.974.176,2.254A2.586,2.586,0,0,0,60.7,11.158Zm1.95,12.261L61.329,12.985a1.3,1.3,0,0,1-.009-.138s0-.006,0-.008a1.32,1.32,0,0,1,.956-1.272l.023-.006a1.337,1.337,0,0,1,.187-.037h0a1.311,1.311,0,0,1,1.462,1.139l.485,3.9a.624.624,0,0,0,1.239-.154l-.062-.5v0l-.422-3.395a2.542,2.542,0,0,0-.967-1.7l-.008-.006a2.565,2.565,0,0,0-.684-.379,2.533,2.533,0,0,0-.824-.155l-.164-2.091c0-.015,0-.03-.005-.045l-.868-5.738a.994.994,0,0,1,1.927-.457L66.979,12.3c.12.462.22.935.3,1.407l1.4,8.6a.623.623,0,0,0,.082.224l.255.42-4.546,2.963ZM67.8,30.482l-2.6-3.565,4.492-2.927,2.5,3.563Z" transform="translate(-47.695)" fill="#0f2575"/></g></g><g transform="translate(17.012 18.086)"><g transform="translate(0)"><path d="M321.478,290.268a.627.627,0,0,0-.036-.117.664.664,0,0,0-.057-.108.622.622,0,0,0-.077-.095.6.6,0,0,0-.095-.077.635.635,0,0,0-.108-.057.627.627,0,0,0-.117-.036.618.618,0,0,0-.244,0,.627.627,0,0,0-.117.036.661.661,0,0,0-.108.057.621.621,0,0,0-.095.077.628.628,0,0,0-.135.2.634.634,0,0,0-.036.117.635.635,0,0,0,0,.244.631.631,0,0,0,.171.32.624.624,0,0,0,.094.077.669.669,0,0,0,.108.057.625.625,0,0,0,.117.036.6.6,0,0,0,.244,0,.635.635,0,0,0,.225-.093.6.6,0,0,0,.095-.077.632.632,0,0,0,.183-.442A.615.615,0,0,0,321.478,290.268Z" transform="translate(-320.242 -289.766)" fill="#2d4196"/></g></g><g transform="translate(7.745 18.086)"><g transform="translate(0)"><path d="M173.008,290.268a.636.636,0,0,0-.036-.117.663.663,0,0,0-.057-.108.627.627,0,0,0-.078-.095.6.6,0,0,0-.095-.077.625.625,0,0,0-.224-.093.617.617,0,0,0-.244,0,.627.627,0,0,0-.117.036.637.637,0,0,0-.108.057.6.6,0,0,0-.172.172.662.662,0,0,0-.057.108.631.631,0,0,0-.036.117.634.634,0,0,0,0,.244.645.645,0,0,0,.036.117.613.613,0,0,0,.23.28.644.644,0,0,0,.108.057.624.624,0,0,0,.117.036.6.6,0,0,0,.244,0,.625.625,0,0,0,.224-.093.6.6,0,0,0,.095-.077.633.633,0,0,0,.135-.2.63.63,0,0,0,.036-.117.633.633,0,0,0,0-.244Z" transform="translate(-171.772 -289.766)" fill="#2d4196"/></g></g><g transform="translate(22.053 7.188)"><path d="M403.848,115.161h-2.216a.624.624,0,1,0,0,1.248h2.216a.624.624,0,1,0,0-1.248Z" transform="translate(-401.007 -115.161)" fill="#2d4196"/></g><g transform="translate(21.901 10.136)"><path d="M401.2,164.145l-1.567-1.567a.624.624,0,0,0-.883.883l1.567,1.567a.624.624,0,0,0,.883-.883Z" transform="translate(-398.572 -162.395)" fill="#2d4196"/></g><g transform="translate(21.901 2.749)"><path d="M401.2,44.225a.624.624,0,0,0-.883,0l-1.567,1.567a.624.624,0,1,0,.883.883l1.567-1.567A.624.624,0,0,0,401.2,44.225Z" transform="translate(-398.571 -44.042)" fill="#2d4196"/></g><g transform="translate(0.486 7.264)"><g transform="translate(0)"><path d="M58.327,116.385H56.111a.624.624,0,1,0,0,1.248h2.216a.624.624,0,1,0,0-1.248Z" transform="translate(-55.487 -116.385)" fill="#2d4196"/></g></g><g transform="translate(1.287 2.749)"><path d="M70.955,45.794l-1.567-1.567a.624.624,0,0,0-.883.883l1.567,1.567a.624.624,0,0,0,.883-.883Z" transform="translate(-68.322 -44.044)" fill="#2d4196"/></g><g transform="translate(1.287 10.136)"><g transform="translate(0)"><path d="M70.954,162.578a.624.624,0,0,0-.883,0L68.5,164.145a.624.624,0,1,0,.883.883l1.567-1.567A.624.624,0,0,0,70.954,162.578Z" transform="translate(-68.321 -162.395)" fill="#2d4196"/></g></g></g></g></svg>