<svg xmlns="http://www.w3.org/2000/svg" width="21.996" height="21.996" viewBox="0 0 21.996 21.996"><g transform="translate(-0.25 -0.25)"><circle cx="3.043" cy="3.043" r="3.043" transform="translate(8.205 8.205)" fill="none" stroke="#2d4196" stroke-linecap="round" stroke-linejoin="round" stroke-width="1.5"/><path d="M18.142,14.043a1.537,1.537,0,0,0,.307,1.7l.056.056a1.864,1.864,0,1,1-2.637,2.637l-.056-.056a1.55,1.55,0,0,0-2.627,1.1v.158a1.863,1.863,0,0,1-3.727,0v-.084a1.537,1.537,0,0,0-1.006-1.407,1.537,1.537,0,0,0-1.7.307l-.056.056a1.864,1.864,0,1,1-2.637-2.637l.056-.056a1.55,1.55,0,0,0-1.1-2.627H2.863a1.863,1.863,0,1,1,0-3.727h.084A1.537,1.537,0,0,0,4.354,8.453a1.537,1.537,0,0,0-.307-1.7L3.991,6.7A1.864,1.864,0,1,1,6.627,4.065l.056.056a1.537,1.537,0,0,0,1.7.307h.075a1.537,1.537,0,0,0,.932-1.407V2.863a1.863,1.863,0,0,1,3.727,0v.084a1.55,1.55,0,0,0,2.627,1.1l.056-.056a1.864,1.864,0,1,1,2.637,2.637l-.056.056a1.537,1.537,0,0,0-.307,1.7v.075a1.537,1.537,0,0,0,1.407.932h.158a1.863,1.863,0,0,1,0,3.727h-.084A1.537,1.537,0,0,0,18.142,14.043Z" transform="translate(0 0)" fill="none" stroke="#0f2575" stroke-linecap="round" stroke-linejoin="round" stroke-width="1.5"/></g></svg>