<svg xmlns="http://www.w3.org/2000/svg" width="25.743" height="22.624" viewBox="0 0 25.743 22.624"><path d="M305.771,74.561a3.775,3.775,0,0,0,3.771-3.771V64.757a3.771,3.771,0,1,0-7.542,0v6.034A3.775,3.775,0,0,0,305.771,74.561Z" transform="translate(-286.816 -59.479)" fill="#0f2575"/><path d="M254.821,180.986a.754.754,0,0,0-.754.754v3.017a5.279,5.279,0,0,1-10.559,0V181.74a.754.754,0,1,0-1.508,0v3.017a6.8,6.8,0,0,0,6.034,6.746v3.059h-2.263a.754.754,0,1,0,0,1.508H251.8a.754.754,0,1,0,0-1.508h-2.263V191.5a6.8,6.8,0,0,0,6.034-6.746V181.74A.754.754,0,0,0,254.821,180.986Z" transform="translate(-229.832 -173.445)" fill="#0f2575"/><path d="M13.676,36.292a.754.754,0,0,0-.754-.754H11.829l-1.3-2.6a.755.755,0,0,0-1.375.057L6.9,38.625l-2.366-7.1a.755.755,0,0,0-1.431,0L1.769,35.538H.754a.754.754,0,0,0,0,1.508H2.313a.754.754,0,0,0,.715-.516l.793-2.379,2.3,6.9a.754.754,0,0,0,1.416.042l2.393-5.983.757,1.515a.754.754,0,0,0,.675.417h1.559a.754.754,0,0,0,.754-.754Z" transform="translate(0 -31.014)" fill="#fac82e"/></svg>