<svg width="211" height="153" viewBox="0 0 211 153" fill="none" xmlns="http://www.w3.org/2000/svg">
<path opacity="0.1" d="M204.69 141.283C204.493 141.461 204.29 141.632 204.085 141.801C203.33 142.425 202.541 142.985 201.725 143.479C197.436 146.113 192.153 147.398 187.005 148.272C175.459 150.235 163.671 150.616 151.932 150.99C120.219 152.005 88.4211 153.016 56.7879 150.679C44.2904 149.756 31.5131 148.202 20.1857 143.474C18.5635 142.797 16.9717 142.051 15.4104 141.236C12.255 139.581 9.22383 137.571 6.70276 135.175C4.32611 132.923 2.41382 130.334 1.26571 127.394C-1.12922 121.265 0.13772 114.382 2.87087 108.377C4.0133 105.941 5.29633 103.608 6.71007 101.398C8.81615 98.0159 11.1398 94.7399 13.2641 91.3626C20.8182 79.335 25.747 64.144 18.7743 51.8237C16.7633 48.2843 13.8729 45.1772 12.2403 41.4824C10.1544 36.7542 10.3171 31.506 10.9807 26.3973C11.0648 25.7533 11.1635 25.1139 11.2531 24.4745C12.3921 16.9161 14.5128 8.77011 21.0778 4.05093C27.897 -0.852883 37.5773 -0.605216 46.0436 1.14872C59.2066 3.87756 71.3494 9.57616 83.6111 14.7231C95.8728 19.8701 108.716 24.5713 122.201 25.0801C134.106 25.5304 147.995 22.1824 155.896 13.4938C163.574 5.0551 177.999 4.41342 188.401 9.51086C195.531 13.0097 200.86 19.3117 203.107 26.3973C203.561 27.8159 203.889 29.291 204.085 30.7967C204.268 32.1677 204.329 33.559 204.268 34.9463C204.237 35.6217 204.177 36.3085 204.085 36.9726C202.349 50.9613 189.842 61.9938 182.24 74.4897C178.525 80.5936 175.902 87.9245 178.456 94.5057C182.352 104.534 195.9 108.098 204.085 115.564C205.614 116.908 206.97 118.528 208.107 120.369C212.065 127.015 210.601 135.985 204.69 141.283Z" fill="#FAC819"/>
<path opacity="0.1" d="M98.5453 148.57C132.085 148.57 159.274 147.646 159.274 146.507C159.274 145.368 132.085 144.445 98.5453 144.445C65.0059 144.445 37.8169 145.368 37.8169 146.507C37.8169 147.646 65.0059 148.57 98.5453 148.57Z" fill="#FAC819"/>
<path d="M120.569 145.134C120.569 145.134 133.632 128.592 132.621 112.149C132.195 105.246 133.896 98.3741 137.695 92.5944C139.502 89.8563 141.558 87.2901 143.835 84.9279" stroke="#535461" stroke-width="2" stroke-miterlimit="10"/>
<path d="M143.256 74.5596C142.332 76.8607 143.816 85.2004 143.816 85.2004C143.816 85.2004 150.661 80.2042 151.584 77.9054C151.804 77.3584 151.914 76.7735 151.907 76.184C151.901 75.5946 151.779 75.0122 151.547 74.4701C151.316 73.9279 150.979 73.4367 150.558 73.0244C150.137 72.6121 149.638 72.2868 149.091 72.0672C148.544 71.8475 147.959 71.7377 147.369 71.744C146.78 71.7504 146.197 71.8728 145.655 72.1042C145.112 72.3357 144.621 72.6716 144.209 73.0929C143.796 73.5142 143.471 74.0126 143.251 74.5596H143.256Z" fill="#FAC819"/>
<path d="M131.254 84.5316C131.729 86.9633 137.51 93.1573 137.51 93.1573C137.51 93.1573 140.54 85.2454 140.064 82.8137C139.824 81.6576 139.138 80.6426 138.155 79.9888C137.171 79.335 135.969 79.0951 134.81 79.3212C133.651 79.5472 132.627 80.2209 131.962 81.1963C131.296 82.1717 131.042 83.3701 131.254 84.5316V84.5316Z" fill="#FAC819"/>
<path d="M122.81 106.417C124.447 108.276 132.564 110.695 132.564 110.695C132.564 110.695 131.184 102.337 129.546 100.477C129.157 100.035 128.684 99.6737 128.155 99.4141C127.626 99.1546 127.051 99.0017 126.463 98.9643C125.875 98.9269 125.286 99.0056 124.728 99.196C124.17 99.3864 123.656 99.6848 123.213 100.074C122.771 100.463 122.41 100.936 122.15 101.465C121.89 101.994 121.737 102.568 121.7 103.156C121.663 103.744 121.741 104.334 121.932 104.891C122.122 105.449 122.421 105.963 122.81 106.405V106.417Z" fill="#FAC819"/>
<path d="M120.148 124.413C121.448 126.523 129.04 130.29 129.04 130.29C129.04 130.29 129.092 121.817 127.792 119.707C127.485 119.201 127.081 118.76 126.603 118.411C126.125 118.061 125.583 117.809 125.007 117.67C124.432 117.531 123.834 117.507 123.249 117.6C122.664 117.693 122.103 117.901 121.599 118.211C121.095 118.522 120.657 118.929 120.311 119.409C119.965 119.89 119.717 120.434 119.582 121.01C119.447 121.587 119.428 122.184 119.525 122.768C119.622 123.352 119.834 123.911 120.148 124.413Z" fill="#FAC819"/>
<path d="M146.087 97.1155C143.792 98.0544 135.44 96.6269 135.44 96.6269C135.44 96.6269 140.395 89.7507 142.684 88.8118C143.781 88.3819 145.003 88.4007 146.087 88.864C147.17 89.3274 148.028 90.1983 148.475 91.2885C148.922 92.3787 148.922 93.6009 148.475 94.6911C148.028 95.7814 147.17 96.6521 146.087 97.1155V97.1155Z" fill="#FAC819"/>
<path d="M142.708 118.122C140.231 118.334 132.695 114.473 132.695 114.473C132.695 114.473 139.476 109.393 141.945 109.181C142.538 109.121 143.136 109.179 143.706 109.352C144.276 109.525 144.806 109.81 145.265 110.19C145.724 110.57 146.102 111.038 146.379 111.565C146.655 112.093 146.823 112.67 146.874 113.264C146.924 113.857 146.856 114.455 146.674 115.022C146.491 115.589 146.197 116.113 145.809 116.566C145.422 117.018 144.948 117.388 144.415 117.656C143.883 117.923 143.303 118.082 142.708 118.122V118.122Z" fill="#FAC819"/>
<path d="M136.61 138.091C134.211 138.715 126.125 136.184 126.125 136.184C126.125 136.184 131.95 130.033 134.348 129.407C135.488 129.144 136.685 129.337 137.684 129.943C138.684 130.55 139.408 131.522 139.701 132.654C139.995 133.785 139.835 134.986 139.256 136.002C138.677 137.018 137.724 137.767 136.601 138.091H136.61Z" fill="#FAC819"/>
<path opacity="0.25" d="M143.256 74.5596C142.332 76.8607 143.816 85.2004 143.816 85.2004C143.816 85.2004 150.661 80.2042 151.584 77.9054C151.804 77.3584 151.914 76.7735 151.907 76.184C151.901 75.5946 151.779 75.0122 151.547 74.4701C151.316 73.9279 150.979 73.4367 150.558 73.0244C150.137 72.6121 149.638 72.2868 149.091 72.0672C148.544 71.8475 147.959 71.7377 147.369 71.744C146.78 71.7504 146.197 71.8728 145.655 72.1042C145.112 72.3357 144.621 72.6716 144.209 73.0929C143.796 73.5142 143.471 74.0126 143.251 74.5596H143.256Z" fill="black"/>
<path opacity="0.25" d="M131.254 84.5316C131.729 86.9633 137.51 93.1573 137.51 93.1573C137.51 93.1573 140.54 85.2454 140.064 82.8137C139.824 81.6576 139.138 80.6426 138.155 79.9888C137.171 79.335 135.969 79.0951 134.81 79.3212C133.651 79.5472 132.627 80.2209 131.962 81.1963C131.296 82.1717 131.042 83.3701 131.254 84.5316V84.5316Z" fill="black"/>
<path opacity="0.25" d="M122.81 106.417C124.447 108.276 132.564 110.695 132.564 110.695C132.564 110.695 131.184 102.337 129.546 100.477C129.157 100.035 128.684 99.6737 128.155 99.4141C127.626 99.1546 127.051 99.0017 126.463 98.9643C125.875 98.9269 125.286 99.0056 124.728 99.196C124.17 99.3864 123.656 99.6848 123.213 100.074C122.771 100.463 122.41 100.936 122.15 101.465C121.89 101.994 121.737 102.568 121.7 103.156C121.663 103.744 121.741 104.334 121.932 104.891C122.122 105.449 122.421 105.963 122.81 106.405V106.417Z" fill="black"/>
<path opacity="0.25" d="M120.148 124.413C121.448 126.523 129.04 130.29 129.04 130.29C129.04 130.29 129.092 121.817 127.792 119.707C127.485 119.201 127.081 118.76 126.603 118.411C126.125 118.061 125.583 117.809 125.007 117.67C124.432 117.531 123.834 117.507 123.249 117.6C122.664 117.693 122.103 117.901 121.599 118.211C121.095 118.522 120.657 118.929 120.311 119.409C119.965 119.89 119.717 120.434 119.582 121.01C119.447 121.587 119.428 122.184 119.525 122.768C119.622 123.352 119.834 123.911 120.148 124.413Z" fill="black"/>
<path opacity="0.25" d="M146.087 97.1155C143.792 98.0544 135.44 96.6269 135.44 96.6269C135.44 96.6269 140.395 89.7507 142.684 88.8118C143.781 88.3819 145.003 88.4007 146.087 88.864C147.17 89.3274 148.028 90.1983 148.475 91.2885C148.922 92.3787 148.922 93.6009 148.475 94.6911C148.028 95.7814 147.17 96.6521 146.087 97.1155V97.1155Z" fill="black"/>
<path opacity="0.25" d="M142.708 118.122C140.231 118.334 132.695 114.473 132.695 114.473C132.695 114.473 139.476 109.393 141.945 109.181C142.538 109.121 143.136 109.179 143.706 109.352C144.276 109.525 144.806 109.81 145.265 110.19C145.724 110.57 146.102 111.038 146.379 111.565C146.655 112.093 146.823 112.67 146.874 113.264C146.924 113.857 146.856 114.455 146.674 115.022C146.491 115.589 146.197 116.113 145.809 116.566C145.422 117.018 144.948 117.388 144.415 117.656C143.883 117.923 143.303 118.082 142.708 118.122V118.122Z" fill="black"/>
<path opacity="0.25" d="M136.61 138.091C134.211 138.715 126.125 136.184 126.125 136.184C126.125 136.184 131.95 130.033 134.348 129.407C135.488 129.144 136.685 129.337 137.684 129.943C138.684 130.55 139.408 131.522 139.701 132.654C139.995 133.785 139.835 134.986 139.256 136.002C138.677 137.018 137.724 137.767 136.601 138.091H136.61Z" fill="black"/>
<path d="M120.682 144.443C120.682 144.443 139.33 134.615 145.069 119.172C147.479 112.687 151.825 107.094 157.634 103.35C160.397 101.579 163.317 100.065 166.357 98.8267" stroke="#535461" stroke-width="2" stroke-miterlimit="10"/>
<path d="M170.027 89.1113C168.253 90.8382 166.228 99.0653 166.228 99.0653C166.228 99.0653 174.509 97.2641 176.286 95.5439C177.121 94.7101 177.594 93.5812 177.602 92.4017C177.61 91.2221 177.154 90.0867 176.331 89.2411C175.508 88.3956 174.386 87.9079 173.206 87.8836C172.026 87.8593 170.884 88.3003 170.027 89.1113V89.1113Z" fill="#FAC819"/>
<path d="M155.014 93.3689C154.463 95.7848 157.237 103.789 157.237 103.789C157.237 103.789 163.213 97.7842 163.769 95.3683C163.914 94.7892 163.941 94.1871 163.85 93.5972C163.759 93.0073 163.552 92.4414 163.239 91.9328C162.927 91.4241 162.516 90.9829 162.031 90.6349C161.546 90.2869 160.996 90.0392 160.414 89.9062C159.832 89.7732 159.229 89.7576 158.641 89.8603C158.053 89.9631 157.491 90.1821 156.989 90.5046C156.487 90.827 156.054 91.2465 155.715 91.7383C155.377 92.2302 155.14 92.7845 155.019 93.3689H155.014Z" fill="#FAC819"/>
<path d="M138.429 109.956C139.172 112.32 145.609 117.836 145.609 117.836C145.609 117.836 147.735 109.636 146.992 107.272C146.825 106.698 146.545 106.163 146.168 105.699C145.791 105.235 145.326 104.85 144.798 104.568C144.271 104.287 143.692 104.113 143.097 104.058C142.501 104.003 141.901 104.067 141.331 104.247C140.76 104.427 140.232 104.719 139.776 105.106C139.32 105.493 138.946 105.967 138.677 106.501C138.407 107.035 138.246 107.617 138.205 108.213C138.163 108.809 138.241 109.408 138.434 109.974L138.429 109.956Z" fill="#FAC819"/>
<path d="M128.695 125.332C129.029 127.786 134.441 134.304 134.441 134.304C134.441 134.304 137.922 126.581 137.594 124.125C137.514 123.541 137.321 122.978 137.024 122.469C136.727 121.96 136.333 121.514 135.864 121.157C135.395 120.8 134.86 120.539 134.29 120.389C133.72 120.239 133.126 120.202 132.542 120.282C131.958 120.361 131.395 120.554 130.886 120.851C130.376 121.148 129.931 121.542 129.574 122.011C129.217 122.48 128.955 123.014 128.805 123.584C128.655 124.154 128.618 124.748 128.698 125.332H128.695Z" fill="#FAC819"/>
<path d="M163.462 110.877C160.985 110.807 153.927 106.117 153.927 106.117C153.927 106.117 161.239 101.839 163.717 101.907C164.895 101.957 166.007 102.469 166.811 103.331C167.615 104.194 168.046 105.339 168.013 106.517C167.98 107.696 167.483 108.814 166.632 109.63C165.78 110.446 164.642 110.894 163.462 110.877V110.877Z" fill="#FAC819"/>
<path d="M151.859 128.714C149.517 127.905 144.186 121.322 144.186 121.322C144.186 121.322 152.442 119.424 154.787 120.232C155.887 120.639 156.784 121.461 157.286 122.521C157.787 123.581 157.854 124.795 157.471 125.904C157.089 127.013 156.287 127.927 155.238 128.452C154.189 128.978 152.976 129.071 151.859 128.714V128.714Z" fill="#FAC819"/>
<path d="M138.204 144.499C135.758 144.098 129.389 138.51 129.389 138.51C129.389 138.51 137.209 135.243 139.654 135.644C140.812 135.854 141.841 136.511 142.519 137.472C143.197 138.434 143.471 139.623 143.281 140.784C143.09 141.945 142.452 142.984 141.502 143.679C140.553 144.374 139.368 144.669 138.204 144.499V144.499Z" fill="#FAC819"/>
<path d="M122.317 145.816H120.319L105.707 70.4055L103.833 145.816H101.712L99.3377 70.5316L85.0993 145.816H82.8516L92.5293 68.3071L92.8446 65.7876L111.828 63.6644L112.419 68.3071L122.317 145.816Z" fill="#0F2575" fill-opacity="0.9"/>
<path d="M81.9913 48.5476H69.9082V56.0385H81.9913V48.5476Z" fill="#0F2575" fill-opacity="0.9"/>
<path d="M140.017 45.2716L147.323 42.3221H148.925C149.158 42.3221 149.382 42.4149 149.547 42.58C149.712 42.7451 149.805 42.969 149.805 43.2025V63.7725C149.805 64.006 149.712 64.2299 149.547 64.395C149.382 64.5601 149.158 64.6528 148.925 64.6528H147.323L140.017 61.611V45.2716Z" fill="#0F2575" fill-opacity="0.9"/>
<path d="M140.017 46.2083H125.078V60.6744H140.017V46.2083Z" fill="#0F2575" fill-opacity="0.9"/>
<path d="M108.763 19.0367H99.1462V20.7839H108.763V19.0367Z" fill="#0F2575"/>
<path d="M115.243 21.2995H88.1736V41.0567H115.243V21.2995Z" fill="#0F2575"/>
<path opacity="0.1" d="M115.243 38.7174H88.1736V41.059H115.243V38.7174Z" fill="black"/>
<path opacity="0.1" d="M125.452 46.2083H124.846V60.6744H125.452V46.2083Z" fill="black"/>
<path opacity="0.1" d="M81.9914 48.5476H77.8699V56.0385H81.9914V48.5476Z" fill="black"/>
<path opacity="0.1" d="M112.419 68.3071H92.5293L92.8446 65.7876L111.828 63.6644L112.419 68.3071Z" fill="black"/>
<path d="M122.666 39.0911H80.6535C79.3226 39.0911 78.2437 40.1698 78.2437 41.5003V65.5219C78.2437 66.8525 79.3226 67.9311 80.6535 67.9311H122.666C123.997 67.9311 125.076 66.8525 125.076 65.5219V41.5003C125.076 40.1698 123.997 39.0911 122.666 39.0911Z" fill="#0F2575"/>
<path d="M139.875 45.2716H140.017V61.611H139.875C139.565 61.611 139.268 61.4879 139.049 61.2688C138.829 61.0496 138.706 60.7524 138.706 60.4425V46.4402C138.706 46.1302 138.829 45.833 139.049 45.6139C139.268 45.3947 139.565 45.2716 139.875 45.2716Z" fill="#0F2575"/>
<path d="M147.323 42.3289H148.839C149.095 42.3289 149.341 42.4306 149.522 42.6118C149.703 42.7929 149.805 43.0386 149.805 43.2948V63.6982C149.805 63.9544 149.703 64.2001 149.522 64.3812C149.341 64.5623 149.095 64.6641 148.839 64.6641H147.323V42.3289Z" fill="#0F2575"/>
<path opacity="0.1" d="M72.0636 48.5476H69.9082V56.0385H72.0636V48.5476Z" fill="black"/>
<path d="M70.0659 46.2083H69.0952C68.1996 46.2083 67.4736 46.934 67.4736 47.8294V57.3218C67.4736 58.2171 68.1996 58.9429 69.0952 58.9429H70.0659C70.9615 58.9429 71.6875 58.2171 71.6875 57.3218V47.8294C71.6875 46.934 70.9615 46.2083 70.0659 46.2083Z" fill="#0F2575"/>
<path d="M88.1735 34.784C95.623 34.784 101.662 28.7468 101.662 21.2995C101.662 13.8523 95.623 7.81506 88.1735 7.81506C80.7241 7.81506 74.6851 13.8523 74.6851 21.2995C74.6851 28.7468 80.7241 34.784 88.1735 34.784Z" fill="#0F2575"/>
<path d="M88.1736 31.4134C93.761 31.4134 98.2905 26.8853 98.2905 21.2995C98.2905 15.7138 93.761 11.1856 88.1736 11.1856C82.5861 11.1856 78.0566 15.7138 78.0566 21.2995C78.0566 26.8853 82.5861 31.4134 88.1736 31.4134Z" fill="#FAC819"/>
<path d="M113.182 31.4134C118.614 31.4134 123.017 27.0113 123.017 21.581C123.017 16.1506 118.614 11.7485 113.182 11.7485C107.75 11.7485 103.347 16.1506 103.347 21.581C103.347 27.0113 107.75 31.4134 113.182 31.4134Z" fill="#0F2575"/>
<path d="M113.182 28.9547C117.256 28.9547 120.558 25.6534 120.558 21.581C120.558 17.5085 117.256 14.2072 113.182 14.2072C109.108 14.2072 105.806 17.5085 105.806 21.581C105.806 25.6534 109.108 28.9547 113.182 28.9547Z" fill="#FAC819"/>
<path d="M112.419 44.6772C113.134 44.6772 113.714 44.0976 113.714 43.3826C113.714 42.6676 113.134 42.088 112.419 42.088C111.703 42.088 111.124 42.6676 111.124 43.3826C111.124 44.0976 111.703 44.6772 112.419 44.6772Z" fill="#FAC819"/>
<path opacity="0.5" d="M116.538 44.6772C117.253 44.6772 117.833 44.0976 117.833 43.3826C117.833 42.6676 117.253 42.088 116.538 42.088C115.823 42.088 115.243 42.6676 115.243 43.3826C115.243 44.0976 115.823 44.6772 116.538 44.6772Z" fill="#FAC819"/>
<path d="M67.6975 138.984C67.6975 138.984 58.3824 138.421 59.4792 144.948C59.4792 144.948 59.254 146.101 60.308 146.626C60.308 146.626 60.3238 146.142 61.2629 146.306C61.597 146.362 61.9364 146.378 62.2742 146.353C62.7313 146.322 63.1659 146.144 63.5129 145.844V145.844C63.5129 145.844 66.1322 144.761 67.1502 140.484C67.1502 140.484 67.9024 139.549 67.8732 139.31L66.2966 139.986C66.2966 139.986 66.8349 141.112 66.4115 142.062C66.4115 142.062 66.3597 140.035 66.0579 140.074C65.9971 140.085 65.2403 140.468 65.2403 140.468C65.2403 140.468 66.166 142.442 65.4655 143.879C65.4655 143.879 65.7313 141.445 64.9498 140.61L63.844 141.256C63.844 141.256 64.925 143.296 64.1908 144.962C64.1908 144.962 64.38 142.409 63.612 141.413L62.6075 142.195C62.6075 142.195 63.6232 144.205 63.0039 145.588C63.0039 145.588 62.9228 142.613 62.3913 142.391C62.3913 142.391 61.5129 143.163 61.38 143.48C61.38 143.48 62.0737 144.942 61.6436 145.712C61.6436 145.712 61.38 143.73 61.1616 143.721C61.1616 143.721 60.2877 145.034 60.1976 145.932C60.1976 145.932 60.2359 144.595 60.9499 143.595C60.446 143.692 59.9812 143.933 59.6121 144.289C59.6121 144.289 59.7472 143.361 61.1661 143.28C61.1661 143.28 61.889 142.285 62.0827 142.224C62.0827 142.224 60.6706 142.107 59.817 142.485C59.817 142.485 60.5693 141.612 62.3395 142.008L63.3305 141.199C63.3305 141.199 61.4746 140.947 60.6864 141.227C60.6864 141.227 61.5872 140.452 63.5985 141.017L64.675 140.373C64.675 140.373 63.0985 140.031 62.148 140.148C62.148 140.148 63.1435 139.612 64.9903 140.193L65.7628 139.846C65.7628 139.846 64.6029 139.621 64.2629 139.583C63.9228 139.545 63.9048 139.452 63.9048 139.452C64.6393 139.331 65.393 139.415 66.0826 139.695C66.0826 139.695 67.7268 139.085 67.6975 138.984Z" fill="#FAC819"/>
<path opacity="0.1" d="M61.281 148.31C64.923 148.31 67.8754 147.811 67.8754 147.195C67.8754 146.58 64.923 146.081 61.281 146.081C57.639 146.081 54.6865 146.58 54.6865 147.195C54.6865 147.811 57.639 148.31 61.281 148.31Z" fill="#FAC819"/>
</svg>
